<svg width="65" height="55" viewBox="0 0 65 55" fill="none" xmlns="http://www.w3.org/2000/svg">
<path d="M63.333 0.760452C62.763 0.27632 61.95 0 61.098 0H3C2.148 0 1.335 0.27632 0.765005 0.760452C0.195005 1.24458 -0.0749955 1.89086 0.0180045 2.53484L6.624 47.8035C6.756 48.7238 7.611 49.4934 8.781 49.7468L31.221 54.627C31.491 54.6864 31.77 54.716 32.046 54.716C32.322 54.716 32.601 54.6864 32.871 54.627L55.311 49.7468C56.481 49.4934 57.333 48.7238 57.468 47.8035L64.077 2.53484C64.173 1.89086 63.903 1.24458 63.333 0.760452ZM48.597 23.0054L47.259 39.6417L32.145 43.4029L17.031 39.6417L16.458 31.6855H24.108L24.3 35.3028L32.145 37.3284L39.99 35.3028L40.563 28.7944H23.727L23.346 23.0077H40.947L41.52 17.2209H15.117L14.544 11.4319H49.554L48.597 23.0054Z" fill="#A65DCA"/>
</svg>
