<svg width="65" height="55" viewBox="0 0 65 55" fill="none" xmlns="http://www.w3.org/2000/svg">
<path d="M63.333 0.760452C62.763 0.27632 61.95 0 61.098 0H3C2.148 0 1.335 0.27632 0.765005 0.760452C0.195005 1.24458 -0.0749955 1.89086 0.0180045 2.53484L6.624 47.8035C6.756 48.7238 7.611 49.4934 8.781 49.7468L31.221 54.627C31.491 54.6864 31.77 54.716 32.046 54.716C32.322 54.716 32.601 54.6864 32.871 54.627L55.311 49.7468C56.481 49.4934 57.333 48.7238 57.468 47.8035L64.077 2.53484C64.173 1.89086 63.903 1.24458 63.333 0.760452ZM48.936 16.9675H22.146L22.782 22.7725H48.291L46.377 39.9226L32.058 43.3892L31.917 43.3549L17.757 39.918L16.983 32.9301H23.919L24.222 35.6454L32.133 36.9721L39.906 35.6431L40.731 28.3057H16.461L14.583 11.4182H49.56L48.936 16.9675Z" fill="#A65DCA"/>
</svg>
