<svg width="78" height="78" viewBox="0 0 78 78" fill="none" xmlns="http://www.w3.org/2000/svg">
<path d="M62.4 10.3999H15.6C12.727 10.3999 10.4 12.7269 10.4 15.5999V62.3999C10.4 65.2729 12.727 67.5999 15.6 67.5999H62.4C65.273 67.5999 67.6 65.2729 67.6 62.3999V15.5999C67.6 12.7269 65.273 10.3999 62.4 10.3999ZM39 52.9879C39 57.6081 36.166 60.1977 31.46 60.1977C26.8112 60.1977 23.8498 57.4807 23.8498 53.0867H28.886C28.899 54.7169 29.8714 55.7465 31.3742 55.7465C32.9186 55.7465 33.748 54.7741 33.748 52.9437V38.9947H39V52.9879ZM53.2506 60.1977C48.0272 60.1977 44.7408 57.7381 44.6524 53.7601H49.66C49.7874 55.2629 51.2876 56.2197 53.4638 56.2197C55.4242 56.2197 56.771 55.2759 56.771 53.9161C56.771 52.7721 55.8688 52.1559 53.508 51.6853L50.791 51.1419C47.0132 50.4269 45.0684 48.3677 45.0684 45.1203C45.0684 41.0851 48.3028 38.4383 53.2792 38.4383C58.1152 38.4383 61.4614 41.0565 61.5472 44.8759H56.6982C56.5838 43.4173 55.1954 42.4007 53.3468 42.4007C51.5034 42.4007 50.2892 43.2743 50.2892 44.6471C50.2892 45.7781 51.2044 46.4359 53.378 46.8649L56.0352 47.3797C60.1146 48.1675 61.945 50.0109 61.945 53.2869C61.9476 57.5951 58.6586 60.1977 53.2506 60.1977Z" fill="#A65DCA"/>
</svg>
