<?xml version="1.0" encoding="UTF-8"?>
<svg version="1.1" xmlns="http://www.w3.org/2000/svg" width="198" height="195">
<path d="M0 0 C1.28834244 -0.0071553 2.57668488 -0.01431061 3.90406799 -0.02168274 C5.33503699 -0.024523 6.76600625 -0.02723473 8.19697571 -0.02983093 C9.70166175 -0.03609642 11.20634625 -0.04274329 12.71102905 -0.04974365 C17.65595931 -0.07077886 22.60088985 -0.0811465 27.54585266 -0.09111023 C29.24916411 -0.09515819 30.9524754 -0.09927512 32.65578651 -0.10346031 C40.65949 -0.12251192 48.66318426 -0.13674221 56.66690606 -0.14507228 C65.89983698 -0.15484071 75.1325279 -0.18114998 84.36537427 -0.22157317 C91.50520551 -0.2517577 98.64496806 -0.26654343 105.78486186 -0.26985329 C110.04745527 -0.2722014 114.30979228 -0.28113033 118.57231712 -0.30631447 C122.58527954 -0.32964081 126.59781759 -0.33381029 130.61083031 -0.32355309 C132.07975173 -0.32305869 133.54869436 -0.3293506 135.01755142 -0.34310913 C143.004031 -0.41370161 149.10489609 -0.3865172 155.84663391 4.14717102 C159.87443426 9.20774069 160.96957385 12.93588517 160.99380493 19.30053711 C161.00453789 21.23305077 161.00453789 21.23305077 161.01548767 23.2046051 C161.01832793 24.6355741 161.02103966 26.06654336 161.02363586 27.49751282 C161.02990135 29.00219886 161.03654823 30.50688336 161.04354858 32.01156616 C161.0645838 36.95649642 161.07495143 41.90142696 161.08491516 46.84638977 C161.08896312 48.54970122 161.09308005 50.25301251 161.09726524 51.95632362 C161.11631685 59.96002711 161.13054714 67.96372137 161.13887721 75.96744317 C161.14864565 85.20037408 161.17495492 94.43306501 161.21537811 103.66591138 C161.24556263 110.80574262 161.26034836 117.94550517 161.26365823 125.08539897 C161.26600634 129.34799238 161.27493526 133.61032939 161.3001194 137.87285423 C161.32344574 141.88581665 161.32761522 145.8983547 161.31735802 149.91136742 C161.31686363 151.38028884 161.32315554 152.84923146 161.33691406 154.31808853 C161.40750654 162.30456811 161.38032213 168.4054332 156.84663391 175.14717102 C151.78606424 179.17497137 148.05791976 180.27011096 141.69326782 180.29434204 C140.40492538 180.30149734 139.11658295 180.30865265 137.78919983 180.31602478 C136.35823083 180.31886504 134.92726158 180.32157677 133.49629211 180.32417297 C131.99160607 180.33043846 130.48692157 180.33708533 128.98223877 180.34408569 C124.03730851 180.36512091 119.09237797 180.37548854 114.14741516 180.38545227 C112.44410371 180.38950023 110.74079243 180.39361716 109.03748131 180.39780235 C101.03377783 180.41685396 93.03008356 180.43108425 85.02636176 180.43941432 C75.79343085 180.44918276 66.56073992 180.47549202 57.32789356 180.51591522 C50.18806231 180.54609974 43.04829976 180.56088547 35.90840596 180.56419533 C31.64581255 180.56654345 27.38347554 180.57547237 23.1209507 180.60065651 C19.10798828 180.62398285 15.09545023 180.62815233 11.08243752 180.61789513 C9.6135161 180.61740074 8.14457347 180.62369265 6.6757164 180.63745117 C-1.31076318 180.70804365 -7.41162827 180.68085924 -14.15336609 176.14717102 C-18.18116644 171.08660135 -19.27630603 167.35845687 -19.30053711 160.99380493 C-19.30769241 159.70546249 -19.31484772 158.41712006 -19.32221985 157.08973694 C-19.32506011 155.65876794 -19.32777184 154.22779868 -19.33036804 152.79682922 C-19.33663353 151.29214318 -19.3432804 149.78745868 -19.35028076 148.28277588 C-19.37131597 143.33784562 -19.38168361 138.39291508 -19.39164734 133.44795227 C-19.39569529 131.74464082 -19.39981223 130.04132953 -19.40399742 128.33801842 C-19.42304903 120.33431494 -19.43727932 112.33062067 -19.44560939 104.32689887 C-19.45537782 95.09396796 -19.48168709 85.86127703 -19.52211028 76.62843066 C-19.55229481 69.48859942 -19.56708054 62.34883687 -19.5703904 55.20894307 C-19.57273851 50.94634966 -19.58166744 46.68401265 -19.60685158 42.42148781 C-19.63017792 38.40852539 -19.6343474 34.39598734 -19.62409019 30.38297462 C-19.6235958 28.91405321 -19.62988771 27.44511058 -19.64364624 25.97625351 C-19.71423872 17.98977393 -19.6870543 11.88890884 -15.15336609 5.14717102 C-10.09279642 1.11937067 -6.36465194 0.02423108 0 0 Z M93.84663391 97.14717102 C89.89659276 102.59550364 90.10011986 108.68895645 90.84663391 115.14717102 C92.05059289 119.57774005 94.6770171 122.35959679 98.47163391 124.83467102 C103.83445771 127.57447212 109.67098981 128.62433213 115.55024719 129.71626282 C123.00369544 131.14753515 123.00369544 131.14753515 125.84663391 134.14717102 C126.34663391 137.14717102 126.34663391 137.14717102 125.84663391 140.14717102 C123.56732143 142.44261071 122.20174492 143.10229966 118.97163391 143.51045227 C117.94038391 143.49369446 116.90913391 143.47693665 115.84663391 143.45967102 C114.81538391 143.45580383 113.78413391 143.45193665 112.72163391 143.44795227 C109.83976852 143.14645277 108.20514598 142.80549982 105.84663391 141.14717102 C105.18663391 139.82717102 104.52663391 138.50717102 103.84663391 137.14717102 C98.89663391 137.14717102 93.94663391 137.14717102 88.84663391 137.14717102 C89.9334755 142.49080881 90.7240669 146.33379653 94.84663391 150.14717102 C104.02008835 155.62640861 112.91653386 157.60888758 123.53804016 155.65107727 C130.59473783 153.74415286 136.48323798 150.99826199 140.28413391 144.52217102 C142.47109698 139.52339829 142.65833341 134.50110814 141.84663391 129.14717102 C139.63985803 124.65188681 136.91283876 122.00144295 132.84663391 119.14717102 C129.40199321 117.91942669 129.40199321 117.91942669 125.65913391 117.08467102 C124.32942014 116.75509639 122.99999316 116.42436253 121.67085266 116.09248352 C120.40886047 115.7805304 119.14686829 115.46857727 117.84663391 115.14717102 C115.88390116 114.6002196 113.92468888 114.04023281 111.97163391 113.45967102 C111.19046204 113.22892883 110.40929016 112.99818665 109.60444641 112.76045227 C107.84663391 112.14717102 107.84663391 112.14717102 106.84663391 111.14717102 C106.47163391 107.77217102 106.47163391 107.77217102 106.84663391 104.14717102 C109.61653138 101.54514613 111.51992252 101.18281226 115.28413391 100.77217102 C119.19574012 101.18391904 121.5580859 102.00579092 124.84663391 104.14717102 C125.50663391 105.46717102 126.16663391 106.78717102 126.84663391 108.14717102 C131.46663391 108.14717102 136.08663391 108.14717102 140.84663391 108.14717102 C139.76119385 101.63453067 138.26757248 98.5008613 133.59663391 93.95967102 C121.39219067 85.91583343 104.40564914 86.5881558 93.84663391 97.14717102 Z M54.84663391 90.14717102 C54.83728821 91.58028625 54.8279425 93.01340149 54.8183136 94.48994446 C54.77845161 99.80536522 54.71270274 105.12020489 54.63911438 110.43525696 C54.61088288 112.73596229 54.58967925 115.03676501 54.57563782 117.33760071 C54.55423905 120.64442381 54.50760283 123.95007329 54.45600891 127.25654602 C54.45416595 128.80049042 54.45416595 128.80049042 54.45228577 130.37562561 C54.30627855 137.48911513 54.30627855 137.48911513 51.99604797 140.79658508 C49.03177593 142.65918764 47.28299763 142.71989831 43.84663391 142.14717102 C40.99882772 139.91510671 39.99665725 138.59724104 38.84663391 135.14717102 C33.89663391 135.14717102 28.94663391 135.14717102 23.84663391 135.14717102 C25.17941757 142.47748116 26.60802933 147.55628736 32.65913391 152.39717102 C39.55514579 156.18321676 46.57340227 157.32377157 54.24507141 155.61201477 C60.55098971 153.69509941 64.88130325 151.26186419 68.09663391 145.33467102 C71.44388709 138.68131942 70.98472601 131.09576684 70.94429016 123.83857727 C70.94216774 122.38849525 70.94216774 122.38849525 70.94000244 120.90911865 C70.93443612 117.8426037 70.9218899 114.77616364 70.90913391 111.70967102 C70.90411456 109.62178146 70.89955241 107.53389074 70.89546204 105.44599915 C70.88447773 100.34636122 70.86723647 95.24677879 70.84663391 90.14717102 C65.56663391 90.14717102 60.28663391 90.14717102 54.84663391 90.14717102 Z " fill="#A860CB" transform="translate(30.153366088867188,6.8528289794921875)"/>
<path d="M0 0 C0.66 0.33 1.32 0.66 2 1 C-0.31 3.31 -2.62 5.62 -5 8 C-5.33 7.34 -5.66 6.68 -6 6 C-2.25 1.125 -2.25 1.125 0 0 Z " fill="#C99DDE" transform="translate(19,9)"/>
</svg>
