<svg width="71" height="58" viewBox="0 0 71 58" fill="none" xmlns="http://www.w3.org/2000/svg">
<path d="M22.7191 0C20.9115 0 19.2351 0.36666 17.75 1.14136C13.1088 3.56945 11.3421 9.48649 12.2782 16.8534C4.77091 19.8023 0 24.1445 0 29C0 33.8555 4.77091 38.1977 12.2782 41.1466C11.3426 48.5132 13.1088 54.4306 17.75 56.8586C19.2321 57.6333 20.9086 58 22.7191 58C26.5727 58 31.0266 56.2475 35.5 53.2408C39.9738 56.2475 44.4331 58 48.2867 58C50.0942 58 51.7707 57.6333 53.2558 56.8586C57.897 54.4306 59.6636 48.5135 58.7275 41.1466C66.232 38.1977 71 33.8545 71 29C71 24.1445 66.2291 19.8023 58.7218 16.8534C59.6574 9.48678 57.8912 3.56945 53.25 1.14136C51.7679 0.363979 50.0914 0 48.2809 0C44.4273 0 39.9734 1.75252 35.5 4.75916C31.0263 1.75252 26.5713 0 22.7191 0ZM22.7191 4.6911C25.0314 4.6911 28.0893 5.80519 31.4092 7.86911C29.4572 9.53829 27.5455 11.4363 25.7063 13.5497C22.7232 13.9373 19.9106 14.5023 17.3051 15.2094C17.2911 15.0457 17.258 14.8739 17.2473 14.712C16.9308 9.94052 18.0872 6.38367 20.3385 5.20419C21.0042 4.85571 21.7813 4.6911 22.7191 4.6911ZM48.2809 4.6911C49.2158 4.6911 49.9958 4.85571 50.6615 5.20419C52.9128 6.38098 54.0692 9.94052 53.7527 14.712C53.742 14.8739 53.709 15.0457 53.6949 15.2094C51.0878 14.5019 48.2731 13.9374 45.2879 13.5497C43.4487 11.4366 41.5427 9.5381 39.5908 7.86911C42.9105 5.80553 45.9698 4.6911 48.2809 4.6911ZM35.5 10.8482C36.3019 11.5096 37.0983 12.2086 37.9036 12.9738C37.1055 12.9495 36.3117 12.9162 35.5 12.9162C34.6903 12.9162 33.8984 12.9496 33.1021 12.9738C33.9068 12.2094 34.6988 11.5089 35.5 10.8482ZM35.5 17.6073C37.9515 17.6073 40.2751 17.7315 42.4798 17.9476C43.8243 19.6036 45.1494 21.3543 46.3915 23.3037C47.5821 25.1722 48.6348 27.0847 49.5636 29C48.6347 30.9165 47.5828 32.832 46.3915 34.7016C45.1533 36.6453 43.8315 38.3847 42.4914 40.0366C40.2088 40.2629 37.8673 40.3927 35.5 40.3927C33.0485 40.3927 30.7249 40.2685 28.5202 40.0524C27.1757 38.3964 25.8506 36.6509 24.6085 34.7016C23.4172 32.832 22.3656 30.9165 21.4364 29C22.3649 27.0847 23.4179 25.1722 24.6085 23.3037C25.8472 21.36 27.1682 19.6153 28.5086 17.9633C30.7912 17.7371 33.1327 17.6073 35.5 17.6073ZM49.5405 19.0576C50.7142 19.3144 51.8426 19.5916 52.9033 19.9005C52.663 20.8845 52.3691 21.8872 52.0366 22.9005C51.6559 22.2532 51.2868 21.6039 50.8752 20.9581C50.4518 20.2938 49.9818 19.697 49.5405 19.0576ZM21.4537 19.0628C21.0139 19.7003 20.5468 20.296 20.1248 20.9581C19.7133 21.604 19.3439 22.2531 18.9634 22.9005C18.6301 21.8852 18.3315 20.8812 18.0909 19.8953C19.1711 19.586 20.2966 19.3122 21.4537 19.0628ZM13.2201 21.6178C13.8434 24.0025 14.708 26.4746 15.8201 28.9948C14.7104 31.5089 13.8494 33.9765 13.2258 36.356C8.07398 34.1018 5.17708 31.2956 5.17708 29C5.17708 26.6437 7.99305 23.9585 12.7116 21.822C12.8726 21.749 13.0555 21.6891 13.2201 21.6178ZM57.7742 21.644C62.926 23.8982 65.8229 26.7044 65.8229 29C65.8229 31.3563 63.007 34.0415 58.2884 36.178C58.1274 36.251 57.9445 36.3109 57.7799 36.3822C57.1563 33.9961 56.2987 31.5217 55.1856 29C56.2941 26.488 57.1512 24.0215 57.7742 21.644ZM35.5 23.6387C32.231 23.6387 29.5833 26.0379 29.5833 29C29.5833 31.9621 32.231 34.3613 35.5 34.3613C38.769 34.3613 41.4167 31.9621 41.4167 29C41.4167 26.0379 38.769 23.6387 35.5 23.6387ZM18.9634 35.0995C19.3442 35.747 19.7188 36.3959 20.1305 37.0419C20.5535 37.7057 21.0187 38.3034 21.4595 38.9424C20.2858 38.6856 19.1574 38.4084 18.0967 38.0995C18.3372 37.1149 18.6306 36.1134 18.9634 35.0995ZM52.0366 35.1047C52.3695 36.1191 52.6687 37.1198 52.9091 38.1047C51.8289 38.414 50.7034 38.6878 49.5463 38.9372C49.9861 38.2997 50.4532 37.704 50.8752 37.0419C51.2858 36.3973 51.6568 35.7507 52.0366 35.1047ZM17.3051 42.7906C19.9122 43.4981 22.7269 44.0626 25.7121 44.4503C27.5518 46.5644 29.4564 48.4665 31.4092 50.1361C28.0895 52.1994 25.0313 53.3141 22.7191 53.3141C21.7842 53.3141 21.0042 53.1443 20.3385 52.7958C18.0872 51.619 16.9308 48.0647 17.2473 43.2932C17.2582 43.1297 17.2908 42.956 17.3051 42.7906ZM53.6949 42.7906C53.7091 42.956 53.7419 43.1297 53.7527 43.2932C54.0692 48.0647 52.9128 51.6163 50.6615 52.7958C49.9958 53.1443 49.2187 53.3141 48.2809 53.3141C45.9687 53.3141 42.9105 52.1998 39.5908 50.1361C41.5438 48.4664 43.4536 46.5647 45.2937 44.4503C48.2768 44.0627 51.0894 43.4977 53.6949 42.7906ZM33.0964 45.0262C33.8945 45.0505 34.6883 45.0838 35.5 45.0838C36.3117 45.0838 37.1055 45.0505 37.9036 45.0262C37.0983 45.7914 36.3019 46.4905 35.5 47.1518C34.6981 46.4904 33.9017 45.7914 33.0964 45.0262Z" fill="#A65DCA"/>
</svg>
